<?xml version="1.0" standalone="no"?><!DOCTYPE svg PUBLIC "-//W3C//DTD SVG 1.1//EN" "http://www.w3.org/Graphics/SVG/1.1/DTD/svg11.dtd"><svg t="1663765190371" class="icon" viewBox="0 0 1025 1024" version="1.1" xmlns="http://www.w3.org/2000/svg" p-id="2884" xmlns:xlink="http://www.w3.org/1999/xlink" width="200.1953125" height="200"><path d="M1002.666667 494.933333l-155.733334 480c-6.4 19.2-27.733333 29.866667-46.933333 23.466667-19.2-6.4-29.866667-27.733333-23.466667-46.933333l155.733334-480c6.4-19.2 27.733333-29.866667 46.933333-23.466667 19.2 6.4 29.866667 27.733333 23.466667 46.933333z" fill="#00D26E" p-id="2885"></path><path d="M435.2 554.666667c153.6 0 277.333333-123.733333 277.333333-277.333334s-123.733333-277.333333-277.333333-277.333333-277.333333 123.733333-277.333333 277.333333 123.733333 277.333333 277.333333 277.333334z m0-480c110.933333 0 202.666667 91.733333 202.666667 202.666666s-91.733333 202.666667-202.666667 202.666667-202.666667-91.733333-202.666667-202.666667 91.733333-202.666667 202.666667-202.666666zM765.866667 682.666667c-6.4-21.333333-10.666667-42.666667-42.666667-42.666667h-576c-32 0-36.266667 21.333333-42.666667 42.666667l-85.333333 298.666666c0 23.466667 19.2 42.666667 42.666667 42.666667h746.666666c23.466667 0 42.666667-19.2 42.666667-42.666667l-85.333333-298.666666zM106.666667 949.333333l66.133333-234.666666h524.8l66.133333 234.666666H106.666667z" fill="#525866" p-id="2886"></path></svg>